#!OML:ASF Y:\EmotionMaleHayes\Project 1\Capture day 1\Session 1\Male1.ASF
:FULLY-SPECIFIED
:DEGREES
726
root 42.0531 16.2169 10.3666 -173.656 28.528 -169.943
lowerback 11.6805 0.013358 3.7197
upperback 4.94994 0.961571 2.63997
thorax -1.36988 0.703138 0.521018
lowerneck -21.669 3.81171 8.73341
upperneck 26.6077 7.52874 -13.3257
head 13.488 2.78183 -5.33787
rclavicle 6.76862e-014 -1.82882e-014
rhumerus -37.8555 -0.528139 -71.7866
rradius 29.647
rwrist 6.77971
rhand -23.0084 -31.5368
rfingers 7.12502
rthumb 3.43498 -61.4888
lclavicle 6.76862e-014 -1.82882e-014
lhumerus -31.8737 -33.6961 100.868
lradius 58.1292
lwrist 15.992
lhand -27.1183 -25.1515
lfingers 7.12502
lthumb -0.534331 4.82754
rfemur -12.0696 -3.20711 14.2704
rtibia 25.3509
rfoot -18.7848 -1.03475
rtoes -27.0166
lfemur -2.60994 1.35033 -14.7916
ltibia 64.1405
lfoot -8.96303 1.52409
ltoes 26.0904
727
root 42.1669 16.2707 10.2295 -174.869 28.1986 -171.801
lowerback 11.824 0.35487 2.39943
upperback 4.98255 1.23893 2.10115
thorax -1.42465 0.820035 0.665877
lowerneck -20.0614 3.82521 9.32391
upperneck 24.7334 7.43397 -14.2154
head 12.4487 2.7544 -5.72635
rclavicle -1.51076e-014 6.75868e-015
rhumerus -36.5853 -0.277779 -73.4557
rradius 31.1956
rwrist 5.53929
rhand -21.7993 -30.8643
rfingers 7.12502
rthumb 4.60261 -60.7943
lclavicle -1.51076e-014 6.75868e-015
lhumerus -32.2035 -32.0369 100.797
lradius 53.8029
lwrist 14.8956
lhand -27.3804 -25.441
lfingers 7.12502
lthumb -0.787482 4.53734
rfemur -10.0008 -3.80142 12.246
rtibia 23.8331
rfoot -18.8263 -0.636481
rtoes -25.9181
lfemur -4.44924 2.46389 -16.6147
ltibia 64.867
lfoot -9.45821 1.36887
ltoes 28.3889
728
root 42.271 16.3422 10.1051 -174.332 27.7618 -170.787
lowerback 11.8284 0.559268 3.69952
upperback 4.87357 1.66252 2.16133
thorax -1.50342 1.04541 -0.056374
lowerneck -20.0702 4.12411 9.71079
upperneck 25.0311 7.82514 -14.2338
head 12.645 2.97259 -5.74728
rclavicle -5.62561e-014 4.81059e-014
rhumerus -35.2659 0.142498 -75.1534
rradius 32.7927
rwrist 4.41112
rhand -20.7506 -30.153
rfingers 7.12502
rthumb 5.61518 -60.0586
lclavicle -5.62561e-014 4.81059e-014
lhumerus -32.4568 -30.4005 100.334
lradius 49.8911
lwrist 13.7391
lhand -27.6962 -25.4132
lfingers 7.12502
lthumb -1.09247 4.5637
rfemur -8.50888 -3.69018 13.516
rtibia 22.3393
rfoot -19.0246 -0.715296
rtoes -24.6254
lfemur -6.97729 4.01892 -15.3088
ltibia 65.8398
lfoot -9.7371 0.326744
ltoes 28.5655
729
root 42.3715 16.417 9.97836 -173.924 27.252 -170.19
lowerback 11.7651 0.76327 4.47439
upperback 4.74514 2.02013 2.2345
thorax -1.56843 1.22775 -0.459702
lowerneck -20.8895 4.24604 8.87123
upperneck 26.7196 7.96451 -12.472
head 13.3865 3.13608 -4.92935
rclavicle 6.06293e-015 -5.36719e-015
rhumerus -33.8012 0.669313 -76.6207
rradius 34.3404
rwrist 3.3275
rhand -19.8525 -29.287
rfingers 7.12502
rthumb 6.48223 -59.1678
lclavicle 6.06293e-015 -5.36719e-015
lhumerus -31.9993 -27.7 99.5402
lradius 45.1769
lwrist 11.7486
lhand -27.8422 -25.7351
lfingers 7.12502
lthumb -1.23349 4.24111
rfemur -7.04882 -3.69484 14.3612
rtibia 20.7939
rfoot -19.3034 -0.940683
rtoes -25.3106
lfemur -9.56554 5.79348 -14.7106
ltibia 66.0163
lfoot -9.38484 0.0282291
ltoes 20.5827
730
root 42.473 16.4836 9.84209 -173.773 26.7485 -169.736
lowerback 11.777 0.883071 5.07837
upperback 4.67926 2.25869 2.32835
thorax -1.61396 1.35258 -0.731049
lowerneck -20.9194 4.40921 9.18693
upperneck 27.0405 8.25295 -12.6629
head 13.5938 3.28558 -5.02106
rclavicle -7.72775e-014 -4.96962e-014
rhumerus -32.1981 1.22736 -77.8987
rradius 35.9251
rwrist 2.20386
rhand -18.9073 -28.5071
rfingers 7.12502
rthumb 7.39459 -58.3578
lclavicle -7.72775e-014 -4.96962e-014
lhumerus -32.4424 -25.2557 98.5916
lradius 42.1351
lwrist 10.3071
lhand -28.1046 -25.4907
lfingers 7.12502
lthumb -1.48698 4.48389
rfemur -5.28719 -3.81369 15.0227
rtibia 19.1262
rfoot -19.4291 -1.07122
rtoes -26.0097
lfemur -11.7134 6.8185 -14.4137
ltibia 65.9131
lfoot -9.35736 -0.821971
ltoes 21.7291
731
root 42.5761 16.5372 9.70364 -173.261 26.2756 -167.969
lowerback 11.9304 0.852397 7.01745
upperback 4.69468 2.50062 2.61803
thorax -1.59566 1.50879 -1.54384
lowerneck -20.7349 4.54425 8.80598
upperneck 27.217 8.48552 -12.1348
head 13.6111 3.42649 -4.69752
rclavicle 4.42296e-014 1.19271e-014
rhumerus -30.6141 2.39966 -79.4844
rradius 37.5782
rwrist 1.38067
rhand -18.8829 -28.3371
rfingers 7.12502
rthumb 7.41814 -58.187
lclavicle 4.42296e-014 1.19271e-014
lhumerus -32.7428 -22.4667 97.1325
lradius 39.0519
lwrist 8.84073
lhand -28.3693 -25.5768
lfingers 7.12502
lthumb -1.74259 4.39585
rfemur -3.36029 -3.69557 17.1409
rtibia 17.4544
rfoot -19.3328 -1.07528
rtoes -25.3276
lfemur -13.6281 8.10361 -12.7229
ltibia 65.7251
lfoot -9.37615 -1.29956
ltoes 20.3416
732
root 42.6814 16.5947 9.57045 -173.677 25.9138 -168.887
lowerback 11.9225 1.00486 6.41197
upperback 4.60363 2.5946 2.25897
thorax -1.69004 1.53398 -1.59424
lowerneck -20.7445 4.75262 9.36266
upperneck 27.5635 8.84141 -12.5188
head 13.8628 3.61067 -4.89811
rclavicle 1.37161e-014 3.00165e-014
rhumerus -29.1275 4.78302 -81.205
rradius 39.2767
rwrist -0.26574
rhand -19.0951 -28.532
rfingers 7.12502
rthumb 7.21339 -58.3891
lclavicle 1.37161e-014 3.00165e-014
lhumerus -32.9766 -19.7847 95.3526
lradius 36.1123
lwrist 7.44156
lhand -28.702 -25.5885
lfingers 7.12502
lthumb -2.06394 4.38123
rfemur -1.8041 -4.28907 16.1302
rtibia 16.0819
rfoot -19.2852 -0.899616
rtoes -25.9537
lfemur -15.7856 9.03908 -14.1578
ltibia 65.3879
lfoot -9.60518 -1.547
ltoes 18.227
733
root 42.8025 16.6336 9.45831 -174.125 25.4611 -168.47
lowerback 12.7417 1.06736 6.67874
upperback 4.59754 2.8096 2.30861
thorax -2.11578 1.64073 -1.75063
lowerneck -20.3563 4.87617 9.3894
upperneck 27.6677 9.04339 -12.3199
head 13.8402 3.75309 -4.78518
rclavicle 8.15017e-015 -2.5842e-014
rhumerus -27.5058 5.37761 -82.1145
rradius 40.5396
rwrist 0.864563
rhand -17.0212 -26.6597
rfingers 7.12502
rthumb 9.21484 -56.4384
lclavicle 8.15017e-015 -2.5842e-014
lhumerus -33.1292 -16.9291 93.3525
lradius 33.6991
lwrist 5.21051
lhand -29.3074 -23.6364
lfingers 7.12502
lthumb -2.64856 6.32686
rfemur 0.396042 -4.00302 16.8234
rtibia 14.5383
rfoot -19.4649 -1.83614
rtoes -27.3324
lfemur -17.3982 10.4027 -13.8515
ltibia 65.094
lfoot -9.49744 -2.10569
ltoes 2.0004
734
root 42.9066 16.6667 9.298 -173.58 25.2029 -166.972
lowerback 12.5298 1.16244 8.34026
upperback 4.60351 3.15212 2.49977
thorax -1.88432 1.84188 -2.50812
lowerneck -20.5423 4.9387 9.27032
upperneck 28.0039 9.19627 -12.1417
head 14.0285 3.8323 -4.67023
rclavicle -4.13472e-014 7.55382e-015
rhumerus -25.9903 6.99492 -83.2543
rradius 42.3629
rwrist -0.411671
rhand -17.2598 -27.0276
rfingers 7.12502
rthumb 8.98467 -56.8162
lclavicle -4.13472e-014 7.55382e-015
lhumerus -33.3165 -13.9825 91.1038
lradius 31.2294
lwrist 3.37495
lhand -29.4386 -22.9833
lfingers 7.12502
lthumb -2.77526 6.97838
rfemur 2.02686 -4.3494 18.4575
rtibia 12.9809
rfoot -19.4508 -1.61781
rtoes -27.3364
lfemur -19.235 12.1632 -12.7262
ltibia 64.171
lfoot -10.0967 -1.95212
ltoes 4.01087
735
root 43.0104 16.6973 9.14736 -173.591 25.1787 -166.845
lowerback 12.4395 1.41359 8.53959
upperback 4.58634 3.49285 2.42573
thorax -1.80055 2.01411 -2.734
lowerneck -20.4078 5.09905 9.52621
upperneck 28.0895 9.44034 -12.2331
head 14.0918 3.97013 -4.7081
rclavicle 6.04305e-014 -1.55052e-014
rhumerus -24.58 8.98989 -84.2079
rradius 44.4173
rwrist -2.34119
rhand -17.9175 -27.8664
rfingers 7.12502
rthumb 8.34992 -57.6814
lclavicle 6.04305e-014 -1.55052e-014
lhumerus -33.2996 -9.48383 88.3039
lradius 28.7535
lwrist 0.308168
lhand -29.7701 -22.7159
lfingers 7.12502
lthumb -3.09543 7.24139
rfemur 3.41504 -4.62805 18.5519
rtibia 11.7043
rfoot -19.3136 -1.32937
rtoes -28.0546
lfemur -21.1047 13.8942 -13.2515
ltibia 62.9186
lfoot -10.4695 -0.730523
ltoes -5.53672
736
root 43.1188 16.7143 9.00019 -173.609 24.8632 -166.347
lowerback 12.5759 1.61703 9.20643
upperback 4.50114 3.86782 2.39925
thorax -1.87515 2.20168 -3.18555
lowerneck -20.2972 5.18404 9.68876
upperneck 28.4096 9.58113 -12.0926
head 14.2255 4.08704 -4.6608
rclavicle -6.4605e-015 4.37326e-015
rhumerus -23.4254 10.4239 -84.8498
rradius 46.5375
rwrist -3.82114
rhand -17.9643 -28.2905
rfingers 7.12502
rthumb 8.30478 -58.1072
lclavicle -6.4605e-015 4.37326e-015
lhumerus -34.1116 -8.42367 86.4903
lradius 27.4121
lwrist 0.586224
lhand -30.5437 -21.9261
lfingers 7.12502
lthumb -3.84252 8.01899
rfemur 5.04252 -5.46547 18.9756
rtibia 10.6034
rfoot -19.2707 -1.04027
rtoes -30.9167
lfemur -22.4804 14.1021 -12.9815
ltibia 62.0829
lfoot -11.1434 -2.03341
ltoes 16.4989
737
root 43.2261 16.7252 8.85117 -173.747 24.6869 -165.952
lowerback 12.8064 1.90691 9.89736
upperback 4.43906 4.36692 2.25846
thorax -1.93943 2.45109 -3.78938
lowerneck -20.1508 5.07386 9.90368
upperneck 28.5937 9.43726 -12.1099
head 14.2639 4.06798 -4.74065
rclavicle -1.78906e-015 -3.45885e-014
rhumerus -22.3414 11.6368 -85.326
rradius 48.6755
rwrist -5.13046
rhand -18.0156 -28.5684
rfingers 7.12502
rthumb 8.25528 -58.3871
lclavicle -1.78906e-015 -3.45885e-014
lhumerus -34.6009 -7.24357 84.2555
lradius 25.8836
lwrist 0.167856
lhand -30.9504 -21.2266
lfingers 7.12502
lthumb -4.23527 8.71106
rfemur 6.79221 -6.02311 19.317
rtibia 9.42111
rfoot -19.2589 -0.812234
rtoes -32.6777
lfemur -23.8925 14.9892 -13.5308
ltibia 60.7339
lfoot -12.327 0.458999
ltoes -0.0228487
738
root 43.3401 16.7285 8.6986 -173.952 24.3071 -165.512
lowerback 12.9521 2.03783 10.4494
upperback 4.4569 4.63787 2.19588
thorax -1.91128 2.59704 -4.19906
lowerneck -20.0296 5.04387 10.094
upperneck 28.6708 9.37569 -12.1026
head 14.2706 4.07749 -4.78592
rclavicle 6.88789e-014 4.69132e-014
rhumerus -21.1891 13.4105 -85.6681
rradius 50.8948
rwrist -6.64641
rhand -17.9901 -28.7827
rfingers 7.12502
rthumb 8.27992 -58.6005
lclavicle 6.88789e-014 4.69132e-014
lhumerus -35.002 -5.46682 81.6124
lradius 24.4454
lwrist -0.876804
lhand -31.1816 -20.9517
lfingers 7.12502
lthumb -4.45854 8.98136
rfemur 8.71036 -6.43107 19.7619
rtibia 8.07553
rfoot -19.2344 -0.702586
rtoes -33.343
lfemur -25.3254 16.2777 -13.4692
ltibia 59.4384
lfoot -12.8864 1.06848
ltoes -0.701255
